<?xml version="1.0" encoding="utf-8"?>
<!-- Generator: Adobe Illustrator 22.1.0, SVG Export Plug-In . SVG Version: 6.00 Build 0)  -->
<svg version="1.1" xmlns="http://www.w3.org/2000/svg" xmlns:xlink="http://www.w3.org/1999/xlink" x="0px" y="0px"
	 viewBox="0 0 80 80" style="enable-background:new 0 0 80 80;" xml:space="preserve">
<style type="text/css">
	.st0{fill:#E43126;}
	.st1{fill:#FFFFFF;}
	.st2{fill:none;stroke:#FFFFFF;stroke-width:0.25;stroke-miterlimit:10;}
	.st3{fill:none;stroke:#FFFFFF;stroke-width:0.25;}
	.st4{font-family:'SegoeUI-Semilight';}
	.st5{font-size:7px;}
</style>
<g id="Isolation_Mode">
	<g>
		<path class="st0" d="M74.6,20c-0.7-1.3-1.8-2.4-2.9-3.1L44.1,1c-2.3-1.3-6-1.3-8.2,0L8.3,16.9C6,18.2,4.2,21.4,4.2,24v31.9
			c0,1.3,0.5,2.8,1.2,4.1s1.8,2.4,2.9,3.1L35.9,79c2.3,1.3,6,1.3,8.2,0l27.6-15.9c2.3-1.3,4.1-4.5,4.1-7.1V24.1
			C75.9,22.8,75.4,21.3,74.6,20z"/>
		<g>
			<path class="st1" d="M49.4,26.8c-0.4,0.3-0.8,0.6-1.1,0.8c0.1,0.1,0.1,0.2,0.2,0.3c0,0.1,0.1,0.1,0.1,0.2
				c0.1,0.2,0.2,0.3,0.3,0.4c0.1,0.2,0.3,0.4,0.4,0.6c0.1,0.1,0.1,0.2,0.2,0.3c0,0.1,0.1,0.1,0.1,0.2c0.1,0.2,0.2,0.4,0.3,0.6
				c0,0.2,0,0.3-0.1,0.5c-0.2,0.3-0.4,0.5-0.7,0.6c-0.2,0.1-0.4,0.1-0.6,0c-0.1-0.1-0.3-0.2-0.3-0.3c-0.3-0.4-0.6-0.9-0.8-1.3
				c0-0.1-0.1-0.1-0.1-0.2c0-0.1-0.1-0.1-0.1-0.2c0-0.1-0.1-0.1-0.1-0.2c0-0.1-0.1-0.1-0.1-0.2c-0.2-0.4-0.5-0.8-0.8-1.2v0.1
				c0,0.1-0.1,0.2-0.1,0.3c0,0.1-0.1,0.2-0.1,0.3c0,0.1-0.1,0.2-0.1,0.3s-0.1,0.2-0.1,0.3c0,0.1-0.1,0.2-0.1,0.3
				c-0.2,0.5-0.4,1-0.6,1.4c-0.2,0.2-0.4,0.5-0.7,0.6c-0.1,0-0.3,0.1-0.4,0.1c-0.1,0-0.2,0-0.3-0.1c-0.2-0.1-0.4-0.3-0.4-0.5
				c-0.1-0.3,0-0.6,0.1-0.9c0-0.1,0.1-0.2,0.1-0.3c0-0.1,0.1-0.2,0.1-0.3c0-0.1,0.1-0.2,0.1-0.3c0-0.1,0.1-0.2,0.1-0.3
				s0.1-0.2,0.1-0.3c0-0.1,0.1-0.2,0.1-0.3c0-0.1,0.1-0.2,0.1-0.3c0-0.1,0.1-0.2,0.1-0.3c0-0.1,0.1-0.2,0.1-0.3s0.1-0.2,0.1-0.3
				c0-0.1,0.1-0.2,0.1-0.3c0-0.1,0.1-0.2,0.1-0.3c0-0.1,0.1-0.2,0.1-0.3c0-0.1,0.1-0.2,0.1-0.3s0.1-0.2,0.1-0.3
				c0-0.1,0.1-0.2,0.1-0.3c0-0.1,0.1-0.2,0.1-0.3c0-0.1,0.1-0.2,0.1-0.3c0-0.1,0.1-0.2,0.1-0.3s0.1-0.2,0.1-0.3
				c0-0.1,0.1-0.2,0.1-0.3c0-0.1,0.1-0.2,0.1-0.3c0-0.1,0.1-0.2,0.1-0.3c0-0.1,0.1-0.2,0.1-0.3c0.1-0.2,0.2-0.4,0.2-0.6
				c0-0.1,0.1-0.2,0.1-0.3c0-0.1,0.1-0.2,0.1-0.3c0-0.1,0.1-0.2,0.1-0.3s0.1-0.2,0.1-0.3c0-0.1,0.1-0.2,0.1-0.3
				c0-0.1,0.1-0.2,0.1-0.3c0,0,0.1-0.1,0.1-0.2c0.2-0.4,0.5-0.6,0.9-0.8h0.5c0.2,0.1,0.5,0.3,0.6,0.5c0.1,0.2,0,0.5,0,0.7
				c-0.1,0.1-0.1,0.3-0.2,0.4c0,0.1-0.1,0.2-0.1,0.3s-0.1,0.2-0.1,0.3c0,0.1-0.1,0.2-0.1,0.3c0,0.1-0.1,0.2-0.1,0.3
				c0,0.1-0.1,0.2-0.1,0.3c0,0.1-0.1,0.2-0.1,0.3s-0.1,0.2-0.1,0.3c0,0.1-0.1,0.2-0.1,0.3c0,0.1-0.1,0.2-0.1,0.3
				c0,0.1-0.1,0.2-0.1,0.3c0,0.1-0.1,0.2-0.1,0.3s-0.1,0.2-0.1,0.3c0,0.1-0.1,0.2-0.1,0.3c0,0.1-0.1,0.2-0.1,0.3
				c0,0.1-0.1,0.2-0.1,0.3c0,0.1-0.1,0.2-0.1,0.3s-0.1,0.2-0.1,0.3c-0.1,0.1-0.1,0.3-0.2,0.5c0.7-0.5,1.4-1.1,2.1-1.6
				c0.1,0,0.1-0.1,0.2-0.1c0.2-0.1,0.5-0.1,0.8-0.1c0.2,0.1,0.4,0.2,0.5,0.4c0.1,0.3,0.1,0.7-0.1,1c-0.1,0.2-0.3,0.3-0.5,0.5
				C49.5,26.7,49.4,26.7,49.4,26.8z"/>
			<path class="st1" d="M71.1,33.7v0.6c0,0.1,0,0.1-0.1,0.2c-0.1,0.2-0.3,0.4-0.6,0.6c-0.2,0.1-0.5,0.2-0.7,0.2h-50
				c-0.2,0-0.4-0.1-0.6-0.1c-0.2-0.1-0.4-0.1-0.6-0.3c-0.2-0.1-0.4-0.4-0.5-0.6c-0.1-0.1-0.1-0.3-0.2-0.4c0-0.1-0.1-0.2-0.1-0.3
				v-0.1c-0.1-0.3-0.2-0.6-0.4-1c-0.1-0.2-0.1-0.4-0.2-0.6v-0.1c-0.1-0.2-0.1-0.3-0.2-0.5c0-0.2-0.1-0.3-0.2-0.4
				c-0.1-0.2-0.1-0.4-0.2-0.6c-0.1-0.2-0.1-0.4-0.2-0.6c-0.1-0.2-0.1-0.3-0.2-0.5v-0.1c-0.1-0.2-0.1-0.3-0.2-0.5
				c0-0.2-0.1-0.3-0.2-0.4c-0.1-0.2-0.2-0.5-0.3-0.7c0,0.1,0,0.1,0,0.2s-0.1,0.2-0.1,0.3c0,0.1-0.1,0.2-0.1,0.3
				c0,0.1-0.1,0.2-0.1,0.3c0,0.1-0.1,0.2-0.1,0.3c0,0.1-0.1,0.2-0.1,0.3s-0.1,0.2-0.1,0.3c-0.1,0.2-0.2,0.4-0.3,0.7
				c0,0.1-0.1,0.2-0.1,0.3c0,0.1-0.1,0.2-0.1,0.3c0,0.1-0.1,0.2-0.1,0.3c0,0.1-0.1,0.2-0.1,0.3c0,0.1-0.1,0.2-0.1,0.3
				s-0.1,0.2-0.1,0.3c0,0.1-0.1,0.2-0.1,0.3c0,0.1-0.1,0.2-0.1,0.2c-0.2,0.3-0.4,0.6-0.7,0.7c0,0-0.1,0-0.1,0.1
				c-0.2,0.1-0.4,0.2-0.7,0.1c-0.1,0-0.2,0-0.3-0.1c-0.2-0.1-0.3-0.2-0.5-0.3c0-0.1-0.1-0.2-0.1-0.2c-0.1-0.4,0-0.8,0.2-1.1
				c0-0.1,0.1-0.2,0.1-0.3c0-0.1,0.1-0.2,0.1-0.3c0-0.1,0.1-0.2,0.1-0.3c0-0.1,0.1-0.2,0.1-0.3c0-0.1,0.1-0.2,0.1-0.3
				s0.1-0.2,0.1-0.3c0-0.1,0.1-0.2,0.1-0.3c0-0.1,0.1-0.2,0.1-0.3c0-0.1,0.1-0.2,0.1-0.3c0.1-0.3,0.3-0.6,0.4-0.9
				c0-0.1,0.1-0.2,0.1-0.3c0-0.1,0.1-0.2,0.1-0.3c0-0.1,0.1-0.2,0.1-0.3s0.1-0.2,0.1-0.3c0-0.1,0.1-0.2,0.1-0.3
				c0-0.1,0.1-0.2,0.1-0.3c0-0.1,0.1-0.2,0.1-0.3c0-0.1,0.1-0.2,0.1-0.3c0.2-0.4,0.3-0.8,0.4-1.2c0.1-0.3,0.1-0.6,0-0.9
				c-0.2-0.3-0.5-0.5-0.8-0.6c-0.4-0.1-0.7,0-1.1,0.1c-0.1,0-0.2,0.1-0.2,0.1c-0.6,0.4-1.1,0.9-1.2,1.6c-0.1,0.2,0,0.3-0.1,0.5
				c0,0.2,0,0.4,0.1,0.7c0.2,0.3,0.4,0.5,0.7,0.6c0.1,0.1,0.2,0.1,0.4,0.1c0.2,0.1,0.3,0.2,0.5,0.3c0,0,0,0.1,0.1,0.1
				c0,0.1,0,0.1,0.1,0.2c0.1,0.5-0.3,1-0.8,1.2c-0.4,0.1-0.9,0.1-1.3,0c-0.1,0-0.2-0.1-0.3-0.1c0.1-0.2,0-0.2-0.1-0.3
				c-0.4-0.3-0.8-0.7-1-1.2c-0.1-0.1-0.1-0.3-0.2-0.4c-0.1-0.5-0.2-1.1-0.2-1.6c0.1-0.4,0.1-0.8,0.3-1.2C9,23.6,9,23.4,9.1,23.3
				c0.1-0.1,0.2-0.3,0.2-0.4c0.1-0.1,0.2-0.2,0.2-0.3c0.4-0.5,0.8-0.9,1.3-1.2c0.1,0,0.1-0.1,0.2-0.1c0.2-0.1,0.4-0.2,0.7-0.3
				c0.1-0.2,0.2-0.2,0.3-0.2c0.6-0.2,1.3-0.2,2-0.2c0.1,0,0.2,0.1,0.3,0.1c0.4,0.1,0.7,0.3,1.1,0.5c0.4,0.3,0.8,0.7,1.1,1.1
				c0.1,0.2,0.1,0.3,0.2,0.5c0.1,0.4,0.1,0.8,0.1,1.2c0,0.4-0.2,0.9-0.3,1.3c-0.1,0.1-0.1,0.3-0.2,0.4c-0.1,0.2-0.1,0.4-0.2,0.5
				c0.2-0.2,0.4-0.4,0.6-0.6c0.3-0.4,0.7-0.7,1-1.1c0.4-0.5,0.9-0.9,1.2-1.3c0.7-0.7,1.3-1.4,2-2.1c0.1-0.1,0.2-0.1,0.3-0.2
				c0.3-0.2,0.6-0.2,0.9-0.1c0.2,0.1,0.5,0.3,0.6,0.6c0.1,0.2,0.1,0.4,0.1,0.7c-0.1,0.2-0.2,0.3-0.2,0.5c0,0.1-0.1,0.1-0.1,0.2
				c-0.2,0.2-0.4,0.5-0.7,0.7c-0.3,0.3-0.6,0.6-0.8,0.9c-0.4,0.4-0.8,0.8-1.1,1.2c-0.3,0.3-0.6,0.6-0.9,0.9c-0.3,0.4-0.6,0.7-1,1
				c0,0.1,0.1,0.2,0.1,0.2c0.1,0.2,0.1,0.4,0.2,0.6c0.1,0.2,0.1,0.4,0.2,0.6c0.1,0.2,0.1,0.4,0.2,0.6s0.1,0.4,0.2,0.6
				c0.1,0.2,0.1,0.4,0.2,0.6c0.1,0.2,0.1,0.4,0.2,0.6c0,0.2,0.1,0.3,0.2,0.5v0.1c0.1,0.2,0.1,0.3,0.2,0.5c0,0.1,0.1,0.1,0.1,0.2
				c0.2,0.3,0.5,0.4,0.8,0.4h49.5c0.1,0,0.3,0.1,0.4,0.1c0.1,0.1,0.2,0.1,0.4,0.2C71,33.4,71.1,33.5,71.1,33.7z"/>
			<path class="st1" d="M68.9,22.3c0.3-0.1,0.6-0.1,0.9-0.1c0.2,0.1,0.3,0.2,0.5,0.4c0,0,0,0.1,0.1,0.1c0,0.1,0,0.1,0.1,0.2
				c0,0.2,0,0.4-0.1,0.5c0,0.1-0.1,0.2-0.1,0.3c-0.1,0.2-0.2,0.4-0.2,0.6c0,0.1-0.1,0.1-0.1,0.2c0.2,0,0.5,0,0.7,0
				c0.1,0,0.1,0,0.2,0.1c0.2,0.1,0.3,0.2,0.4,0.4s0,0.5,0,0.7c-0.1,0.3-0.4,0.5-0.7,0.6c-0.4,0.1-0.8,0.1-1.2,0.1v0.1
				c0,0.1-0.1,0.2-0.1,0.3s-0.1,0.2-0.1,0.3s-0.1,0.2-0.1,0.3S69,27.6,69,27.7s-0.1,0.2-0.1,0.3s-0.1,0.2-0.1,0.3s-0.1,0.2-0.1,0.3
				s-0.1,0.2-0.1,0.3s-0.1,0.2-0.1,0.3l-0.1,0.1c0.5,0,1,0,1.5,0.1c0.1,0.1,0.2,0.1,0.3,0.2c0.1,0.1,0.1,0.2,0.2,0.3
				c0,0.2,0,0.5-0.1,0.7c0,0.1-0.1,0.2-0.2,0.3s-0.3,0.2-0.5,0.3c-0.5,0.1-1,0.1-1.4,0.1c-0.5,0-1,0.1-1.5-0.1
				c-0.3-0.1-0.6-0.3-0.7-0.6c0-0.2-0.1-0.5,0-0.7c0-0.3,0.2-0.5,0.3-0.7c0-0.1,0.1-0.2,0.1-0.3s0.1-0.2,0.1-0.3s0.1-0.2,0.1-0.3
				s0.1-0.2,0.1-0.3s0.1-0.2,0.1-0.3c0.2-0.4,0.3-0.7,0.4-1.1c-0.4,0-0.8-0.1-1-0.4c0-0.1-0.1-0.3-0.1-0.4c0-0.1,0-0.2,0.1-0.3
				c0.1-0.3,0.4-0.5,0.7-0.6c0.3-0.1,0.7-0.1,1-0.1c0.2-0.1,0.2-0.3,0.3-0.5c0-0.1,0.1-0.2,0.1-0.3s0.1-0.2,0.1-0.3s0.1-0.2,0.1-0.3
				c0.1-0.1,0.1-0.2,0.2-0.3C68.5,22.6,68.7,22.4,68.9,22.3L68.9,22.3z"/>
			<path class="st1" d="M28.9,30.6c-0.1,0.2-0.3,0.3-0.5,0.5c-0.1,0-0.2,0.1-0.3,0.1h-2.7c-0.2-0.1-0.4-0.2-0.5-0.3
				c-0.1-0.1-0.2-0.3-0.3-0.4c0-0.1,0-0.2-0.1-0.4c0-0.1,0-0.2,0.1-0.4c0,0,0,0,0-0.1c0-0.1,0.1-0.2,0.1-0.3
				c0.1-0.2,0.2-0.4,0.2-0.6c0-0.1,0.1-0.2,0.1-0.3c0-0.1,0.1-0.2,0.1-0.3c0-0.1,0.1-0.2,0.1-0.3c0-0.1,0.1-0.2,0.1-0.3
				c0-0.1,0.1-0.2,0.1-0.3c0.1-0.2,0.2-0.5,0.1-0.7c-0.1-0.1-0.2-0.2-0.3-0.2s-0.2,0-0.2,0c-0.5,0-0.8,0.3-1.1,0.7
				c-0.1,0.1-0.1,0.2-0.2,0.3c-0.4,1-0.8,2-1.2,3c-0.1,0.1-0.1,0.2-0.2,0.3c-0.2,0.2-0.4,0.4-0.7,0.5c-0.1,0-0.2,0-0.3,0.1
				c-0.1,0-0.3,0-0.4-0.1c-0.2-0.1-0.3-0.2-0.5-0.4l-0.1-0.1c0-0.3,0-0.6,0.1-0.9c0-0.1,0.1-0.2,0.1-0.3c0-0.1,0.1-0.2,0.1-0.3
				c0-0.1,0.1-0.2,0.1-0.3c0-0.1,0.1-0.2,0.1-0.3c0-0.1,0.1-0.2,0.1-0.3S21,28,21,27.9c0-0.1,0.1-0.2,0.1-0.3c0.3-0.8,0.7-1.7,1-2.5
				c0-0.1,0.1-0.1,0.1-0.2c0.2-0.2,0.4-0.4,0.6-0.5c0.3,0,0.6-0.1,0.9,0.1c0.2,0.1,0.3,0.3,0.4,0.5c0.1-0.1,0.2-0.1,0.2-0.2
				c0.2-0.1,0.3-0.2,0.5-0.3c0.5,0,0.7-0.1,0.9-0.1h0.8c0.2,0.1,0.5,0.2,0.7,0.3c0.2,0.2,0.4,0.4,0.6,0.7c0.1,0.3,0.1,0.5,0.1,0.8
				s-0.1,0.6-0.2,0.9c-0.3,0.7-0.6,1.4-0.8,2.1c0.5,0,1,0,1.5,0.1c0.2,0.1,0.3,0.2,0.5,0.4C29,30,29,30.3,28.9,30.6z"/>
			<path class="st1" d="M42.7,29.7c0,0.2-0.1,0.3-0.1,0.5c-0.1,0.1-0.1,0.2-0.2,0.2c-0.1,0.1-0.2,0.1-0.2,0.2c0,0-0.1,0-0.1,0.1
				c-0.2,0.1-0.4,0.1-0.6,0.1h-3.1c-0.1,0-0.2,0-0.2-0.1c-0.1,0-0.2-0.1-0.3-0.1c-0.2-0.1-0.3-0.2-0.5-0.3c-0.2-0.1-0.3-0.3-0.4-0.5
				c-0.1-0.2-0.2-0.4-0.3-0.6c-0.3-0.9-0.2-1.9,0.1-2.7c0.1-0.2,0.1-0.3,0.2-0.4c0.1-0.1,0.1-0.2,0.2-0.3c0.3-0.4,0.7-0.8,1.1-1.1
				c-0.1,0.1,0,0.1,0.1,0c0.4-0.1,0.7-0.3,1.1-0.3c0.5,0,0.9,0,1.3,0.1c0.3,0.1,0.7,0.4,0.9,0.6c0.4,0.5,0.5,1.3,0.3,1.9
				c0,0.1-0.1,0.2-0.1,0.3c0,0.1-0.1,0.1-0.1,0.2c-0.1,0.1-0.2,0.2-0.2,0.2c-0.1,0-0.2,0.1-0.2,0.1c-0.4,0.1-0.8,0.1-1.1-0.2
				c-0.1-0.2,0-0.5-0.1-0.8v-0.3c-0.1-0.1-0.2-0.3-0.4-0.3c-0.2,0-0.4,0-0.6,0.1c-0.3,0.1-0.4,0.4-0.6,0.6c0,0.1-0.1,0.1-0.1,0.2
				c-0.1,0.2-0.2,0.4-0.2,0.6c-0.1,0.3,0,0.7,0.2,1c0.2,0.2,0.6,0.3,0.9,0.3h2.2c0.2,0,0.4,0.1,0.6,0.1c0.1,0.1,0.2,0.1,0.3,0.2
				c0,0,0,0.1,0.1,0.1C42.6,29.5,42.6,29.6,42.7,29.7z"/>
			<path class="st1" d="M65.4,29.9c0,0.2-0.1,0.4-0.1,0.5c-0.1,0.2-0.2,0.3-0.4,0.4c-0.1,0-0.2,0.1-0.2,0.1C64.3,31,64,31,63.6,31
				h-1.5c-0.2-0.1-0.4-0.2-0.5-0.4v-0.1c-0.1,0.1-0.2,0.2-0.4,0.3c-0.1,0-0.2,0.1-0.2,0.1c-0.1,0-0.1,0-0.2,0.1h-2.1
				c-0.1,0-0.1,0-0.2-0.1c-0.2-0.1-0.5-0.2-0.6-0.4c-0.2-0.2-0.3-0.4-0.4-0.6c-0.1-0.3-0.1-0.6-0.1-0.8c0.1-0.3,0.1-0.5,0.2-0.8
				c0-0.1,0.1-0.2,0.1-0.3c0-0.1,0.1-0.2,0.1-0.3s0.1-0.2,0.1-0.3c0-0.1,0.1-0.2,0.1-0.3c0-0.1,0.1-0.2,0.1-0.3
				c0-0.1,0.1-0.2,0.1-0.3c0-0.1,0.1-0.2,0.1-0.3s0.1-0.2,0.1-0.3c0-0.1,0.1-0.2,0.1-0.3c0-0.1,0.1-0.2,0.1-0.3
				c0.1-0.2,0.1-0.3,0.2-0.4c0.2-0.1,0.4-0.3,0.7-0.5c0.3-0.1,0.8-0.1,1.1,0.1c0.1,0.1,0.2,0.3,0.3,0.4c0,0.2,0,0.5-0.1,0.7
				c-0.1,0.2-0.2,0.4-0.2,0.6c0,0.1-0.1,0.2-0.1,0.3c0,0.1-0.1,0.2-0.1,0.3c-0.1,0.2-0.2,0.4-0.2,0.6c0,0.1-0.1,0.2-0.1,0.3
				S60,27.9,60,28c0,0.1-0.1,0.1-0.1,0.2s0,0.1-0.1,0.2c0,0.1,0,0.1-0.1,0.2c0,0.1,0,0.1-0.1,0.2c0,0.1-0.1,0.3,0,0.4
				c0.1,0.1,0.3,0.1,0.5,0.1c0.3,0,0.5-0.1,0.7-0.2c0.3-0.2,0.5-0.4,0.5-0.7c0-0.1,0.1-0.2,0.1-0.3c0-0.1,0.1-0.2,0.1-0.3
				c0-0.1,0.1-0.2,0.1-0.3c0-0.1,0.1-0.2,0.1-0.3s0.1-0.2,0.1-0.3c0-0.1,0.1-0.2,0.1-0.3c0-0.1,0.1-0.2,0.1-0.3
				c0-0.1,0.1-0.2,0.1-0.3c0-0.1,0.1-0.2,0.1-0.3c0.1-0.2,0.2-0.4,0.3-0.6c0-0.1,0.1-0.1,0.1-0.2c0.2-0.2,0.4-0.4,0.6-0.5h0.7
				c0.2,0.1,0.3,0.2,0.5,0.4c0,0,0,0.1,0.1,0.1c0,0.1,0,0.1,0.1,0.2c0,0.4-0.1,0.7-0.2,1c0,0.1-0.1,0.2-0.1,0.3
				c0,0.1-0.1,0.2-0.1,0.3s-0.1,0.2-0.1,0.3c0,0.1-0.1,0.2-0.1,0.3c0,0.1-0.1,0.2-0.1,0.3c0,0.1-0.1,0.2-0.1,0.3
				c-0.2,0.4-0.4,0.8-0.5,1.3c0.6,0,1.1-0.1,1.7,0.1c0.1,0.1,0.2,0.2,0.3,0.3C65.3,29.7,65.3,29.8,65.4,29.9z"/>
			<path class="st1" d="M35.8,26.8c0-0.2-0.1-0.5-0.2-0.7c-0.1-0.1-0.1-0.2-0.2-0.3c-0.1-0.1-0.2-0.2-0.2-0.3
				c-0.1-0.1-0.3-0.3-0.4-0.4c-0.2-0.1-0.4-0.3-0.7-0.4c-0.2-0.1-0.5-0.2-0.7-0.2c-0.4,0-0.9,0-1.3,0.1c-0.2,0.1-0.3,0.1-0.5,0.2
				c-0.2,0.1-0.4,0.2-0.6,0.3c-0.1,0-0.1,0.1-0.2,0.1c-0.5,0.4-0.9,0.8-1.2,1.3c-0.1,0.1-0.2,0.3-0.2,0.4c0,0.1-0.1,0.2-0.1,0.3
				c-0.2,0.7-0.3,1.5-0.1,2.3c0,0.1,0,0.1,0.1,0.2c0.2,0.4,0.5,0.8,0.8,1.1c0.4,0.3,0.8,0.4,1.3,0.4c0.7,0,1.3,0,2-0.1
				c0.4-0.1,0.7-0.3,1-0.5c0.5-0.5,0.9-1.1,1.2-1.7c0.1-0.2,0.1-0.3,0.2-0.5c0-0.3,0.1-0.5,0.1-0.8C35.8,27.2,35.8,27,35.8,26.8z
				 M33.4,28.5c-0.1,0.2-0.3,0.4-0.5,0.5c-0.4,0.2-0.8,0.2-1.2,0c-0.2-0.1-0.3-0.2-0.4-0.4c-0.1-0.4-0.1-0.9,0.1-1.3
				c0.2-0.3,0.4-0.6,0.7-0.8c0.2-0.1,0.4-0.2,0.7-0.2c0.1,0,0.3,0,0.4,0.1c0.2,0.1,0.4,0.3,0.5,0.5C33.9,27.4,33.8,28,33.4,28.5z"/>
			<path class="st1" d="M56.8,26.2c0-0.1-0.1-0.2-0.1-0.3c0-0.1-0.1-0.1-0.1-0.2c-0.3-0.5-0.8-0.9-1.3-1.2c-0.5-0.2-1.1-0.2-1.7-0.2
				c-0.5,0.1-1,0.3-1.4,0.5c-0.1,0-0.1,0.1-0.2,0.1c-0.3,0.2-0.6,0.5-0.9,0.8c-0.1,0.1-0.1,0.2-0.2,0.2c0,0.1-0.1,0.1-0.1,0.2
				c-0.1,0.2-0.2,0.4-0.3,0.7c0,0.1-0.1,0.2-0.1,0.3c0,0.1,0,0.2-0.1,0.2c-0.1,0.7-0.1,1.4,0.1,2c0.1,0.1,0.1,0.3,0.2,0.4
				c0.2,0.3,0.5,0.6,0.8,0.8c0.2,0.1,0.4,0.1,0.5,0.2c0.2,0,0.4,0.1,0.5,0.1c0.6,0,1.3,0,1.9-0.1c0.1,0,0.2-0.1,0.3-0.1
				c0.1-0.1,0.2-0.1,0.3-0.2c0.5-0.3,0.9-0.8,1.2-1.2c0.1-0.2,0.2-0.4,0.3-0.6c0-0.1,0.1-0.2,0.1-0.3C56.9,27.8,57,27,56.8,26.2z
				 M54.6,28.2c0,0.1-0.1,0.2-0.1,0.2c0,0.1-0.1,0.1-0.1,0.2c-0.1,0.2-0.3,0.3-0.4,0.4c-0.2,0.1-0.4,0.1-0.6,0.2
				c-0.3,0-0.7-0.1-0.9-0.4c-0.3-0.5-0.1-1,0.1-1.5c0.2-0.4,0.5-0.8,0.9-1c0.2-0.1,0.5-0.2,0.7-0.1c0.3,0,0.5,0.3,0.7,0.5
				C54.9,27.3,54.8,27.8,54.6,28.2z"/>
		</g>
	</g>
	<g id="surface1">
		<path class="st1" d="M12.7,38l4.6,4.3l-1.9,0.2l-0.3,0l0.1,0.3l1.1,2.5l-0.8,0.4l-1.1-2.5l-0.1-0.3L14,43l-1.3,1.3L12.7,38
			 M12.7,37.3c-0.1,0-0.2,0-0.3,0.1C12.1,37.4,12,37.7,12,38l0,6.3c0,0.3,0.2,0.5,0.4,0.6c0.1,0,0.2,0.1,0.3,0.1
			c0.2,0,0.3-0.1,0.5-0.2L14,44l0.8,1.9c0.1,0.2,0.2,0.3,0.4,0.4c0.1,0,0.2,0,0.3,0c0.1,0,0.2,0,0.3-0.1l0.8-0.4
			c0.2-0.1,0.3-0.2,0.4-0.4c0.1-0.2,0.1-0.4,0-0.5l-0.9-1.9l1.2-0.1c0.3,0,0.5-0.2,0.6-0.5c0.1-0.3,0-0.5-0.2-0.7l-4.6-4.3
			C13,37.3,12.8,37.3,12.7,37.3z"/>
	</g>
</g>
<g id="Layer_3">
	<g id="ContextMenu">
	</g>
	<g>
		<path class="st2" d="M59.5,67.2H20.7c-0.5,0-1-0.4-1-1V48.1c0-0.5,0.4-1,1-1h38.8c0.5,0,1,0.4,1,1v18.1
			C60.5,66.7,60,67.2,59.5,67.2z"/>
		<polygon class="st1" points="20.9,48.1 20.9,49.7 21.5,48.9 		"/>
		<polygon class="st1" points="20.9,50.2 20.9,51.8 21.5,51 		"/>
		<polygon class="st1" points="20.9,52.3 20.9,53.9 21.5,53.1 		"/>
		<polygon class="st1" points="20.9,54.4 20.9,56 21.5,55.2 		"/>
		<polygon class="st1" points="20.9,56.5 20.9,58.1 21.5,57.3 		"/>
		<polygon class="st1" points="20.9,58.6 20.9,60.2 21.5,59.4 		"/>
		<polygon class="st1" points="20.9,60.7 20.9,62.3 21.5,61.5 		"/>
		<polygon class="st1" points="20.9,62.8 20.9,64.4 21.5,63.6 		"/>
		<polygon class="st1" points="20.9,64.9 20.9,66.5 21.5,65.7 		"/>
		<line class="st3" x1="22.2" y1="48.9" x2="58.3" y2="48.9"/>
		<line class="st3" x1="22.3" y1="51" x2="58.4" y2="51"/>
		<line class="st3" x1="22.3" y1="57.3" x2="58.4" y2="57.3"/>
		<line class="st3" x1="22.3" y1="59.4" x2="58.4" y2="59.4"/>
		<line class="st3" x1="22.3" y1="61.5" x2="58.4" y2="61.5"/>
		<line class="st3" x1="22.3" y1="63.6" x2="58.4" y2="63.6"/>
		<line class="st3" x1="22.3" y1="65.7" x2="58.4" y2="65.7"/>
		<line class="st3" x1="22.3" y1="55.2" x2="58.4" y2="55.2"/>
		<line class="st3" x1="22.3" y1="53.1" x2="58.4" y2="53.1"/>
	</g>
	<text transform="matrix(1 0 0 1 20.2578 43.5941)" class="st1 st4 st5">Context Hover</text>
</g>
</svg>
