<?xml version="1.0" encoding="utf-8"?>
<!-- Generator: Adobe Illustrator 22.1.0, SVG Export Plug-In . SVG Version: 6.00 Build 0)  -->
<svg version="1.1" id="Layer_1" xmlns="http://www.w3.org/2000/svg" xmlns:xlink="http://www.w3.org/1999/xlink" x="0px" y="0px"
	 viewBox="0 0 80 80" style="enable-background:new 0 0 80 80;" xml:space="preserve">
<style type="text/css">
	.st0{fill:#E43126;}
	.st1{fill:#FFFFFF;}
	.st2{opacity:0.97;fill:#FFFFFF;}
	.st3{font-family:'SegoeUI-Semilight';}
	.st4{font-size:7.5px;}
	.st5{display:none;}
	.st6{display:inline;}
	.st7{fill:#FFFFFF;stroke:#FFFFFF;stroke-width:0.25;stroke-miterlimit:10;}
</style>
<g id="Isolation_Mode">
	<path class="st0" d="M74.5,20.3c-0.7-1.3-1.8-2.3-2.9-3L44.2,1.8c-2.3-1.3-6-1.3-8.1,0L8.6,17.3c-2.3,1.3-4.1,4.4-4.1,6.9v31.1
		c0,1.3,0.5,2.7,1.2,4c0.7,1.3,1.8,2.3,2.9,3L36,77.8c2.3,1.3,6,1.3,8.1,0l27.4-15.5c2.3-1.3,4.1-4.4,4.1-6.9V24.3
		C75.8,23,75.3,21.6,74.5,20.3z"/>
	<g>
		<g>
			<path class="st1" d="M67.5,48.5v0.6c0,0.1,0,0.1-0.1,0.2c-0.1,0.2-0.3,0.4-0.6,0.6c-0.2,0.1-0.5,0.2-0.7,0.2H17.4
				c-0.2,0-0.4-0.1-0.6-0.1c-0.2-0.1-0.4-0.1-0.6-0.3c-0.2-0.1-0.4-0.4-0.5-0.6c-0.1-0.1-0.1-0.3-0.2-0.4c0-0.1-0.1-0.2-0.1-0.3
				v-0.1c-0.1-0.3-0.2-0.6-0.4-1c-0.1-0.2-0.1-0.4-0.2-0.6v-0.1c-0.1-0.2-0.1-0.3-0.2-0.5c0-0.2-0.1-0.3-0.2-0.4
				c-0.1-0.2-0.1-0.4-0.2-0.6c-0.1-0.2-0.1-0.4-0.2-0.6c-0.1-0.2-0.1-0.3-0.2-0.5V44c-0.1-0.2-0.1-0.3-0.2-0.5
				c0-0.2-0.1-0.3-0.2-0.4c-0.1-0.2-0.2-0.5-0.3-0.7c0,0.1,0,0.1,0,0.2s-0.1,0.2-0.1,0.3c0,0.1-0.1,0.2-0.1,0.3
				c0,0.1-0.1,0.2-0.1,0.3c0,0.1-0.1,0.2-0.1,0.3c0,0.1-0.1,0.2-0.1,0.3s-0.1,0.2-0.1,0.3c-0.1,0.2-0.2,0.4-0.3,0.7
				c0,0.1-0.1,0.2-0.1,0.3c0,0.1-0.1,0.2-0.1,0.3c0,0.1-0.1,0.2-0.1,0.3c0,0.1-0.1,0.2-0.1,0.3c0,0.1-0.1,0.2-0.1,0.3
				c0,0.1-0.1,0.2-0.1,0.3c0,0.1-0.1,0.2-0.1,0.3c0,0.1-0.1,0.2-0.1,0.2c-0.2,0.3-0.4,0.6-0.7,0.7c0,0-0.1,0-0.1,0.1
				c-0.2,0.1-0.4,0.2-0.7,0.1c-0.1,0-0.2,0-0.3-0.1c-0.2-0.1-0.3-0.2-0.5-0.3c0-0.1-0.1-0.2-0.1-0.2c-0.1-0.4,0-0.8,0.2-1.1
				c0-0.1,0.1-0.2,0.1-0.3c0-0.1,0.1-0.2,0.1-0.3c0-0.1,0.1-0.2,0.1-0.3c0-0.1,0.1-0.2,0.1-0.3c0-0.1,0.1-0.2,0.1-0.3
				s0.1-0.2,0.1-0.3c0-0.1,0.1-0.2,0.1-0.3c0-0.1,0.1-0.2,0.1-0.3c0-0.1,0.1-0.2,0.1-0.3c0.1-0.3,0.3-0.6,0.4-0.9
				c0-0.1,0.1-0.2,0.1-0.3c0-0.1,0.1-0.2,0.1-0.3c0-0.1,0.1-0.2,0.1-0.3c0-0.1,0.1-0.2,0.1-0.3c0-0.1,0.1-0.2,0.1-0.3
				c0-0.1,0.1-0.2,0.1-0.3c0-0.1,0.1-0.2,0.1-0.3s0.1-0.2,0.1-0.3c0.2-0.4,0.3-0.8,0.4-1.2c0.1-0.3,0.1-0.6,0-0.9
				c-0.2-0.3-0.5-0.5-0.8-0.6c-0.4-0.1-0.7,0-1.1,0.1c-0.1,0-0.2,0.1-0.2,0.1c-0.6,0.4-1.1,0.9-1.2,1.6c-0.1,0.2,0,0.3-0.1,0.5
				c0,0.2,0,0.4,0.1,0.7c0.2,0.3,0.4,0.5,0.7,0.6c0.1,0.1,0.2,0.1,0.4,0.1c0.2,0.1,0.3,0.2,0.5,0.3c0,0,0,0.1,0.1,0.1
				c0,0.1,0,0.1,0.1,0.2c0.1,0.5-0.3,1-0.8,1.2c-0.4,0.1-0.9,0.1-1.3,0c-0.1,0-0.2-0.1-0.3-0.1c0.1-0.2,0-0.2-0.1-0.3
				c-0.4-0.3-0.8-0.7-1-1.2c-0.1-0.1-0.1-0.3-0.2-0.4c-0.1-0.5-0.2-1.1-0.2-1.6c0.1-0.4,0.1-0.8,0.3-1.2C7,38.7,7,38.5,7,38.4
				s0.2-0.3,0.2-0.4c0.1-0.1,0.2-0.2,0.2-0.3c0.4-0.5,0.8-0.9,1.3-1.2c0.1,0,0.1-0.1,0.2-0.1c0.2-0.1,0.4-0.2,0.7-0.3
				c0.1-0.2,0.2-0.2,0.3-0.2c0.6-0.2,1.3-0.2,1.9-0.2c0.1,0,0.2,0.1,0.3,0.1c0.4,0.1,0.7,0.3,1.1,0.5c0.4,0.3,0.8,0.7,1.1,1.1
				c0.1,0.2,0.1,0.3,0.2,0.5c0.1,0.4,0.1,0.8,0.1,1.2s-0.2,0.9-0.3,1.3c-0.1,0.1-0.1,0.3-0.2,0.4c-0.1,0.2-0.1,0.4-0.2,0.5
				c0.2-0.2,0.4-0.4,0.6-0.6c0.3-0.4,0.7-0.7,1-1.1c0.4-0.5,0.9-0.9,1.2-1.3c0.7-0.7,1.3-1.4,1.9-2c0.1-0.1,0.2-0.1,0.3-0.2
				c0.3-0.2,0.6-0.2,0.9-0.1c0.2,0.1,0.5,0.3,0.6,0.6c0.1,0.2,0.1,0.4,0.1,0.7c-0.1,0.2-0.2,0.3-0.2,0.5c0,0.1-0.1,0.1-0.1,0.2
				c-0.2,0.2-0.4,0.5-0.7,0.7c-0.3,0.3-0.6,0.6-0.8,0.9c-0.4,0.4-0.8,0.8-1.1,1.2c-0.3,0.3-0.6,0.6-0.9,0.9c-0.3,0.4-0.6,0.7-1,1
				c0,0.1,0.1,0.2,0.1,0.2c0.1,0.2,0.1,0.4,0.2,0.6c0.1,0.2,0.1,0.4,0.2,0.6c0.1,0.2,0.1,0.4,0.2,0.6c0.1,0.2,0.1,0.4,0.2,0.6
				c0.1,0.2,0.1,0.4,0.2,0.6c0.1,0.2,0.1,0.4,0.2,0.6c0,0.2,0.1,0.3,0.2,0.5v0.1c0.1,0.2,0.1,0.3,0.2,0.5c0,0.1,0.1,0.1,0.1,0.2
				c0.2,0.3,0.5,0.4,0.8,0.4h48.2c0.1,0,0.3,0.1,0.4,0.1c0.1,0.1,0.2,0.1,0.4,0.2C67.4,48.2,67.5,48.3,67.5,48.5z"/>
			<path class="st1" d="M25.3,41.8c0-0.2-0.1-0.5-0.2-0.7C25,41,25,40.9,24.9,40.8c-0.1-0.1-0.2-0.2-0.2-0.3
				c-0.1-0.1-0.3-0.3-0.4-0.4c-0.2-0.1-0.4-0.3-0.7-0.4c-0.2-0.1-0.5-0.2-0.7-0.2c-0.4,0-0.9,0-1.3,0.1c-0.2,0.1-0.3,0.1-0.5,0.2
				c-0.2,0.1-0.4,0.2-0.6,0.3c-0.1,0-0.1,0.1-0.2,0.1c-0.5,0.4-0.9,0.8-1.2,1.3c-0.1,0.1-0.2,0.3-0.2,0.4s-0.1,0.2-0.1,0.3
				c-0.2,0.7-0.3,1.5-0.1,2.2c0,0.1,0,0.1,0.1,0.2c0.2,0.4,0.5,0.8,0.8,1.1c0.4,0.3,0.8,0.4,1.3,0.4c0.7,0,1.3,0,1.9-0.1
				c0.4-0.1,0.7-0.3,1-0.5c0.5-0.5,0.9-1.1,1.2-1.7c0.1-0.2,0.1-0.3,0.2-0.5c0-0.3,0.1-0.5,0.1-0.8C25.3,42.2,25.3,42,25.3,41.8z
				 M22.9,43.4c-0.1,0.2-0.3,0.4-0.5,0.5c-0.4,0.2-0.8,0.2-1.2,0c-0.2-0.1-0.3-0.2-0.4-0.4c-0.1-0.4-0.1-0.9,0.1-1.3
				c0.2-0.3,0.4-0.6,0.7-0.8c0.2-0.1,0.4-0.2,0.7-0.2c0.1,0,0.3,0,0.4,0.1c0.2,0.1,0.4,0.3,0.5,0.5C23.4,42.4,23.3,42.9,22.9,43.4z"
				/>
		</g>
		<g>
			<path class="st1" d="M37.6,50.1l34.5,0c0.2,0,0.5-0.1,0.7-0.2c0.3-0.2,0.5-0.4,0.6-0.6c0.1-0.1,0.1-0.1,0.1-0.2v-0.6
				c0-0.2-0.1-0.3-0.2-0.4C73.1,48,73,48,72.9,47.9c-0.1,0-0.3-0.1-0.4-0.1c0,0-18.7,0-32.8,0h-2"/>
		</g>
		<text transform="matrix(1 0 0 1 27.0742 45.6768)" class="st2 st3 st4">Context Hover</text>
	</g>
	<g class="st5">
		<g transform="translate(0.000000,511.000000) scale(0.100000,-0.100000)" class="st6">
			<path class="st7" d="M355.7,4999.5c-3.4-0.8-6.9-3-8.5-5.4c-3.1-4.7-3.1-4.4-3.1-58.4c0-27-0.2-49-0.5-48.9
				c-0.2,0.1-4.7,4.8-10,10.5c-10.7,11.7-11.7,12.3-17.8,12.2c-4.8-0.1-7-1.2-17.1-9.1c-10.3-8-10.6-8.4-12.5-12.3
				c-1.1-2.5-1.3-3.5-1.1-6.4c0.1-2.1,0.6-4.2,1.2-5.4c1.4-2.7,65.4-85.3,70.2-90.7l4-4.4v-13.7v-13.8l53.7,0.1l53.8,0.2l8.1,34.9
				c4.5,19.2,8.8,37.1,9.6,39.8l1.5,4.9v34.7v34.7l-1.5,2.8c-0.9,1.7-2.4,3.4-3.7,4.4l-2.3,1.5l-8.6,0.2c-7.8,0.2-8.9,0.1-11-0.9
				l-2.3-1v10.2c0,11.5-0.4,13.4-3.4,17c-3.2,3.7-4.6,4.1-16,4.1c-7.5,0-10.3-0.2-11.7-0.7l-1.8-0.8v2.2c0,5.5-2.9,10.6-7.2,12.8
				c-2.6,1.3-3,1.3-12.2,1.3c-9,0-9.7-0.1-12.2-1.2l-2.7-1.3l-0.2,18.1c-0.2,17-0.2,18.2-1.2,20.4c-1.3,2.8-3.7,5.3-6.6,6.8
				c-2,1.1-2.8,1.1-13.4,1.2C362.7,5000,356.7,4999.8,355.7,4999.5z M381,4992.9c0.9-0.7,2.2-2.2,2.7-3.3c0.9-2,1-4.5,1-54.4
				c0-45.2,0.1-52.2,0.7-52c0.4,0.2,1.7,0.6,2.8,0.9l2.1,0.6l0.2,29.9c0.2,29.1,0.2,29.9,1.2,31.7c0.6,1,1.8,2.3,2.8,2.9
				c1.6,1.1,2.2,1.2,10.7,1.2c10.1,0,11.3-0.4,13.4-3.7c1-1.6,1-2.7,1-30.3c0-27.7,0.1-28.7,1-28.7c0.5,0,1.7-0.2,2.6-0.3l1.6-0.3
				v22.6v22.6l1.8,1.6l1.8,1.6h9.6c10.8,0,12-0.4,13.8-4c0.9-1.7,1-3.8,1.1-29.5l0.2-27.5l2.3-1.9l2.3-1.8v15.3
				c0,14.3,0.1,15.4,1,16.9c1.7,2.8,3.1,3.2,11.7,3.2c8.8,0,10.3-0.5,12-4.3c1-2.1,1-3.7,1-33.6v-31.5l-7.7-30.7
				c-4.3-16.8-8.7-34.3-9.8-38.8l-2.1-8.1h-48.7h-48.7v12.3v12.3l-4.9,5.8c-5.3,6.2-68.5,87.8-69.5,89.8c-0.9,1.6-0.8,5.3,0.1,7.1
				c0.5,0.8,1.5,2.2,2.5,3.1c2.6,2.5,15.5,12.3,17.3,13.2c1.8,1,5.6,1.1,7.5,0.3c0.7-0.3,8.1-8,16.3-17l15-16.4l0.3,59.5l0.3,59.5
				l1.2,2c2.3,3.7,3.5,4,16,3.8C378.9,4994.2,379.3,4994.1,381,4992.9z"/>
		</g>
	</g>
	<g id="surface1">
		<path class="st1" d="M34.6,12.9l11.2,10.5l-4.6,0.5h-0.7l0.2,0.7l2.7,6.1l-2,1l-2.7-6.1l-0.2-0.7l-0.7,0.2l-3.2,3.2V12.9
			 M34.6,11.2c-0.2,0-0.5,0-0.7,0.2c-0.7,0-1,0.7-1,1.5v15.4c0,0.7,0.5,1.2,1,1.5c0.2,0,0.5,0.2,0.7,0.2c0.5,0,0.7-0.2,1.2-0.5l2-2
			l2,4.6c0.2,0.5,0.5,0.7,1,1c0.2,0,0.5,0,0.7,0c0.2,0,0.5,0,0.7-0.2l2-1c0.5-0.2,0.7-0.5,1-1s0.2-1,0-1.2l-2.2-4.6l2.9-0.2
			c0.7,0,1.2-0.5,1.5-1.2c0.2-0.7,0-1.2-0.5-1.7L35.5,11.4C35.3,11.2,34.8,11.2,34.6,11.2z"/>
	</g>
</g>
</svg>
